<svg xmlns="http://www.w3.org/2000/svg" width="24" height="24" viewBox="0 0 24 24"><title>dexp-smartbox</title><path fill="#58A6FF" fill-rule="nonzero" d="M1.5 11.303v4.073c0 .135.08.292.206.4l.067.05 8.235 5.797c1.259.774 2.807.807 4.004.1l.162-.102 8.043-5.737a.737.737 0 0 0 .254-.336l.018-.068.006-.218-.006-3.921-7.598 5.24c-1.675 1.172-3.703 1.213-5.426.127l-.184-.12L1.5 11.302zm8.996-7.443l-.184.093-7.887 5.008a1.797 1.797 0 0 0-.24.189.685.685 0 0 1-.14.17c-.15.229-.091.436.109.607l.06.047 7.913 5.374c1.199.823 2.565.857 3.754.104l.154-.102 7.722-5.326c.23-.153.316-.382.158-.653l-.048-.074-.027-.022a.745.745 0 0 1-.116-.138 2.212 2.212 0 0 0-.346-.27l-.118-.074-7.315-4.79c-1.123-.632-2.342-.671-3.45-.143zm-.638 7.075a.75.75 0 0 1-.162.983l-.071.051-1.14.722a.75.75 0 0 1-.873-1.217l.07-.05 1.141-.722a.75.75 0 0 1 1.035.233zm5.301-.275l.077.042 1.139.721a.75.75 0 0 1-.725 1.31l-.077-.042-1.14-.72a.75.75 0 0 1 .726-1.311zm-3.15-1.992c.604 0 1.094.358 1.094.798 0 .44-.49.798-1.093.798-.604 0-1.094-.357-1.094-.798 0-.44.49-.798 1.094-.798zm4.599-2.016a.75.75 0 0 1-.162.984l-.071.05-1.14.722a.75.75 0 0 1-.872-1.217l.07-.051 1.14-.72a.75.75 0 0 1 1.035.232zm-8.095-.277l.077.042 1.14.722a.75.75 0 0 1-.725 1.31l-.077-.043-1.14-.721a.75.75 0 0 1 .725-1.31zm14.28 1.746c.632.46 1.018 1.01 1.132 1.604a.773.773 0 0 1 .056.203l.006.1.013 3.847-.004 1.201-.016.554a2.215 2.215 0 0 1-.783 1.393l-.115.087-8.057 5.746c-1.673 1.115-3.842 1.154-5.65.132l-.191-.113-8.246-5.803a2.069 2.069 0 0 1-.932-1.55L0 15.376V9.998c0-.047.004-.093.013-.137.05-.609.392-1.176.992-1.635.157-.18.348-.35.576-.504l.156-.1L9.553 2.66c1.585-.86 3.344-.886 4.968-.048l.203.109 7.331 4.8c.329.195.598.417.811.653l-.073-.054z"/></svg>