<svg xmlns="http://www.w3.org/2000/svg" width="24" height="24" viewBox="0 0 24 24"><title>elari-smartbeat</title><path fill="#58A6FF" fill-rule="nonzero" d="M11.825 0c4.384 0 6.86 3.489 6.86 7.316v11.515c0 2.593-2.974 5.169-6.86 5.169l-.195-.002C7.882 23.918 5 21.568 5 18.83V7.316c0-1.76.294-3.167 1.194-4.407C7.445 1.211 9.626 0 11.824 0zm5.617 9.345c-2.696 2.207-8.566 2.169-11.199.114l.001 9.372c0 2.028 2.372 3.925 5.58 3.925l.186-.002c3.071-.076 5.33-2.007 5.428-3.801l.003-.122.001-9.486zM15.86 2.94c.246 1.48-.508 3.19-2.037 4.488-1.985 1.676-4.87 2.165-6.751 1.13 2.468 1.863 9.177 1.61 10.356-1.156l.014-.038v-.048c0-1.672-.55-3.248-1.582-4.376zm-1.905-.979c-1.203-1.067-3.9-.763-5.659.754C6.52 4.233 6.11 6.135 7.201 7.129l.06.054.1.083c.342.263.768.436 1.242.523l-.09-.087c-1.138-1.15-.727-2.987.783-4.259 1.474-1.258 3.754-1.485 4.955-.412.157.138.29.288.4.446a2.017 2.017 0 0 0-.697-1.516zM10.1 4.392c-1 .843-1.24 1.846-.723 2.412l.068.068.086.072c.777.603 2.315.43 3.354-.442 1.019-.852 1.22-1.939.539-2.542-.69-.615-2.282-.457-3.324.432z"/></svg>