<svg xmlns="http://www.w3.org/2000/svg" width="24" height="24" viewBox="0 0 24 24"><title>hub</title><path fill="#58A6FF" fill-rule="nonzero" d="M12.7501851,3 C18.9063933,3.27869261 23.9999439,6.33021701 23.9999439,10.25 C23.8333146,12.75 23.75,14 23.75,14 C23.5,19 18.578602,21.5 12,21.5 C5.42157811,21.5 0.5,19 0.25,14 L4.74851543e-05,10.2746068 C-0.00356710128,6.16042167 5.41851551,3 12.0001851,3 L12.7501851,3 Z M22.5,11.75 C20.4972732,14.1005092 16.61777,15.5479965 12.0001914,15.5479965 C7.38263225,15.5479965 3.50275411,14.1001622 1.5,11.75 L1.75,14.5 C2,18 7.00018513,20 12.0001851,20 C17.0001851,20 22,18 22.25,14.5 L22.5,11.75 Z"/></svg>