<svg xmlns="http://www.w3.org/2000/svg" width="24" height="24" viewBox="0 0 24 24"><title>irbis-a</title><path fill="#58A6FF" fill-rule="nonzero" d="M11.754 0c4.18 0 7.8 1.474 9.213 3.658l-.023-.022c.92.844 1.363 1.875 1.411 3.093a.628.628 0 0 1 .033.13l.006.084.112 6.62v.001C22.506 19.995 17.691 24 11.753 24 5.775 24 1 20.03 1 13.564l.002-.042L1 13.365l.112-6.423.005-.077.003-.14c.05-1.134.465-2.123 1.291-2.944l.135-.13C3.963 1.47 7.58 0 11.754 0zM3.68 18.553c1.63 2.622 4.601 4.103 8.074 4.103 3.41 0 6.364-1.465 8.012-4.036-1.96 1.413-4.813 2.186-8.012 2.186-3.285 0-6.135-.797-8.074-2.253zM2.444 7.609l-.1 5.768c0 3.724 3.919 6.085 9.409 6.085 5.25 0 9.27-2.23 9.405-5.707l.004-.181-.1-5.96c-1.341 2.268-5.032 3.811-9.308 3.811-4.28 0-7.973-1.545-9.31-3.816zm9.31-6.265c-4.745 0-8.501 2.064-8.501 4.369 0 2.304 3.756 4.368 8.501 4.368 4.745 0 8.502-2.064 8.502-4.368 0-2.304-3.757-4.369-8.502-4.369zm.004 5.82c.697 0 1.262.316 1.262.706 0 .39-.565.706-1.262.706-.698 0-1.262-.316-1.262-.706 0-.39.565-.706 1.262-.706zm4.318-2.157c.698 0 1.262.316 1.262.706 0 .39-.565.705-1.262.705-.697 0-1.262-.316-1.262-.705 0-.39.565-.706 1.262-.706zm-8.65 0c.698 0 1.262.316 1.262.706 0 .39-.565.705-1.262.705-.697 0-1.262-.316-1.262-.705 0-.39.565-.706 1.262-.706zm4.33-2.155c.695 0 1.26.315 1.26.705 0 .365-.496.665-1.132.702l-.128.003c-.696 0-1.26-.315-1.26-.705 0-.39.563-.705 1.26-.705z"/></svg>