<svg xmlns="http://www.w3.org/2000/svg" width="24" height="24" viewBox="0 0 24 24"><title>jbl-link-portable</title><path fill="#58A6FF" fill-rule="nonzero" d="M8.972 1.008c2.103-1.271 4.185-1.334 6.263-.225.167.09.325.18.473.273l.007-.01c1.494.921 2.263 2.021 2.61 3.636.096.445.143.829.168 1.297l.032.72c.12 2.993.112 9.324-.039 11.453-.081 1.26-.384 2.325-.981 3.185-.429.629-1.046 1.167-1.824 1.652-1.23.754-2.531 1.102-3.862.99-1.112-.092-2.225-.522-3.185-1.194-1.526-1.02-2.275-2.306-2.486-4.352l-.024-.289c-.17-2.381-.163-10.336.006-12.442.08-1.046.327-1.98.775-2.758.332-.577.777-1.031 1.418-1.498.195-.149.412-.294.649-.438zm8.051 3.482l-.038.053c-.298.395-.748.783-1.357 1.152-2.142 1.294-4.315 1.333-6.435.117l-.16-.09c-.635-.365-1.146-.765-1.47-1.218a6.522 6.522 0 0 0-.221 1.292l-.022.314c-.15 2.55-.141 10.424.037 12.2.174 1.69.733 2.65 1.963 3.472.802.56 1.712.913 2.6.987 1.06.089 2.108-.192 3.122-.813.643-.401 1.138-.833 1.462-1.308.422-.608.663-1.386.75-2.337l.02-.241c.143-2.023.154-8.01.047-11.062l-.032-.735a7.046 7.046 0 0 0-.152-1.335 5.874 5.874 0 0 0-.114-.448zm-2.36-2.634C12.964.949 11.338.998 9.6 2.048l.011-.007c-.166.106-.32.208-.46.307-.476.352-.752.693-.765.975-.015.412.527.95 1.401 1.429l.187.103c1.68.894 3.322.83 5.025-.2 1.708-1.035 1.602-1.768-.336-2.8zm-2.708.504c.39-.102.786-.022 1.163.207.643.41.713 1.09.043 1.548-.53.342-1.108.36-1.67.032-.437-.276-.65-.7-.438-1.145.139-.29.418-.478.781-.605l.121-.037z"/></svg>