<svg xmlns="http://www.w3.org/2000/svg" width="24" height="24" viewBox="0 0 24 24"><title>jbl-link-music</title><path fill="#58A6FF" fill-rule="nonzero" d="M11.95 0c1.68 0 3.35.508 5.018 1.466 3.262 1.895 3.898 3.635 3.952 9.583l.003.94c0 3.68-.117 5.087-.463 6.323l-.062.21C19.321 21.928 15.328 24 11.951 24c-1.667 0-3.328-.49-5-1.468-3.2-1.887-3.892-3.715-3.947-9.179L3 12.743V11.55c.006-1.41.047-2.854.11-3.872.238-2.985 1.718-5.085 4.039-6.374C8.73.426 10.618 0 11.95 0zm6.62 4.387l-.002.008c-.181.854-.98 1.696-2.383 2.457-2.883 1.585-5.76 1.532-8.587-.072-1.203-.696-1.993-1.46-2.234-2.258-.581.893-.94 1.968-1.042 3.242a74.15 74.15 0 0 0-.107 4.137v.84c.011 5.354.475 6.954 3.056 8.564l.296.179c1.491.872 2.943 1.3 4.384 1.3 2.903 0 6.398-1.813 7.287-4.622.311-1.023.441-2.124.466-5.033l.004-1.14c0-4.146-.183-6.2-1.138-7.602zm-6.62-3.172c-.61 0-1.38.11-2.175.33-1.14.381-2.286 1.036-2.878 1.63-.844.849-.435 1.631 1.268 2.617 2.483 1.409 4.939 1.454 7.474.06 2.383-1.293 2.434-2.281.167-3.568a9.11 9.11 0 0 0-1.232-.597 7.815 7.815 0 0 0-2.623-.472zm-.337 1.524c.39-.101.785-.021 1.163.208.642.41.713 1.09.042 1.548-.53.342-1.108.36-1.67.031-.437-.275-.65-.7-.437-1.144.138-.291.418-.478.78-.605l.122-.038z"/></svg>