<svg xmlns="http://www.w3.org/2000/svg" width="24" height="24" viewBox="0 0 24 24"><title>lg-xboom-wk7y</title><path fill="#58A6FF" fill-rule="nonzero" d="M12.076 0c3.857 0 7.076 1.664 7.076 3.999v15.2c0 2.43-3.434 4.801-7.076 4.801C8.432 24 5 21.629 5 19.2V3.997C5 1.665 8.219 0 12.076 0zm5.664 6.44l-.075.054-.062.044-.036.026a5.57 5.57 0 0 1-.548.333 2.991 2.991 0 0 1-.16.084 7.225 7.225 0 0 1-.395.186l-.043.018a5.986 5.986 0 0 1-.308.125 10.14 10.14 0 0 1-.19.07l-.03.01a9.046 9.046 0 0 1-.305.102l-.061.019a8.653 8.653 0 0 1-.186.055l-.18.049a1.372 1.372 0 0 1-.025.007l-.191.048-.095.022a12.495 12.495 0 0 1-.782.152 12.187 12.187 0 0 1-.592.08l-.16.016-.12.01a12.926 12.926 0 0 1-.788.044l-.117.002-.215.002c-.09 0-.18 0-.27-.003l-.063-.001a13.177 13.177 0 0 1-.788-.044l-.12-.01a12.712 12.712 0 0 1-.75-.096l-.056-.009a11.916 11.916 0 0 1-1.038-.22 10.53 10.53 0 0 1-.22-.06l-.127-.038a14.46 14.46 0 0 1-.189-.06 9.107 9.107 0 0 1-.934-.365 8.64 8.64 0 0 1-.333-.166l-.053-.028a7.86 7.86 0 0 1-.41-.241 7.302 7.302 0 0 1-.108-.072l-.068-.047-.062-.044-.038-.027-.005-.004-.032-.023V19.2c0 1.514 2.713 3.388 5.664 3.388 2.95 0 5.664-1.874 5.664-3.389V6.44zm-5.394 1.555l-.135.002-.135.001c.111 0 .222-.001.332-.004l-.117.002h.055zm-.27-6.583c-3.18 0-5.664 1.284-5.664 2.587 0 .888 1.155 1.768 2.898 2.238l.176.046c.675.167 1.432.274 2.24.298l.35.005c3.18 0 5.664-1.284 5.664-2.587 0-1.303-2.485-2.587-5.664-2.587zm0 1.804c.52 0 .94.28.94.627 0 .346-.42.628-.94.628s-.941-.282-.941-.628c0-.346.421-.627.94-.627zm5.712 3.186l.07-.052.012-.012-.034.028-.048.036z"/></svg>