<svg xmlns="http://www.w3.org/2000/svg" width="24" height="24" viewBox="0 0 24 24"><title>module-2</title><path fill="#58A6FF" fill-rule="nonzero" d="M8.825.25a2.1 2.1 0 0 1 1.96.177l3.508 2.287a4 4 0 0 1 1.816 3.35V20.66a2 2 0 0 1-1.081 1.777l-2.072 1.073a.996.996 0 0 1-.024.012l-.065.033a1.11 1.11 0 0 1-.367.064 1 1 0 0 1-.522-.147l-4.545-2.785A3 3 0 0 1 6 18.13V2.166a1.1 1.1 0 0 1 .702-1.026zm1.414 1.014a1.1 1.1 0 0 0-1.027-.092l-.963.403 3.804 2.302A3 3 0 0 1 13.5 6.444V22.1l1.068-.551a1 1 0 0 0 .533-.765l.008-.124V6.065a3 3 0 0 0-1.362-2.513z"/></svg>