<svg xmlns="http://www.w3.org/2000/svg" width="24" height="24" viewBox="0 0 24 24"><title>module</title><path fill="#58A6FF" fill-rule="nonzero" d="M12.494 3c.759 0 1.38.589 1.43 1.334l.003.099V7.4l1.272-.65.352.688-.351-.688c.13-.066.27-.106.414-.118l.11-.003.108.008c.107.012.213.04.312.084l.098.048 2.87 1.61.654-.332a.6.6 0 0 1 .498-.02l.066.032 1.996 1.116a.572.572 0 0 1 .242.199l.03.05a.59.59 0 0 1 .081.28v.44a.6.6 0 0 1-.04.214l.847.475.039.024a.999.999 0 0 1 .471.756l.004.094v.784a1.446 1.446 0 0 1-.7 1.233l-.094.053-9.279 4.693v.41a1.433 1.433 0 0 1-2.56.885l-2.51 1.268-.025.016c-.445.224-.875.181-1.19-.043L.578 16.9l-.008-.006-.08-.05C.168 16.62 0 16.233 0 15.79c0-.759.486-1.587 1.138-1.917h.002l9.922-5.022V4.433c0-.792.641-1.433 1.432-1.433zm-1.432 14.974l-2.23 1.128c-.22.112-.442.47-.475.773l-.004.068 2.709-1.368v-.601zm-2.872.114l.101-.056 2.77-1.403v-6.434l-9.379 4.747-.057.034c-.221.15-.425.522-.425.812v.058c-.002.018-.007.021-.02.016l6.057 3.52c.154-.53.508-1.027.952-1.294zM12.494 4.2a.232.232 0 0 0-.232.233V18.88a.233.233 0 0 0 .465 0V4.432l-.005-.046a.233.233 0 0 0-.228-.185V4.2zM22.8 12.034l-8.872 4.49v.602l8.738-4.42a.246.246 0 0 0 .13-.172l.004-.044v-.456zm-7.1-4.193l-1.302.667h-.002l-.469.238v6.433l7.81-3.952L15.7 7.841zm-1.773-.258v.005l.198.386-.198-.39zm1.728.234l.045.024.046-.023a.096.096 0 0 1-.09-.001zm.585-1.047l-.538.959-.001.001-.047.085.001.002.047-.084v-.001l.538-.962zm.002 0l-.294.523.294-.523zm-2.54-1.858l-.104.063.068-.037.036-.026z"/></svg>