<svg xmlns="http://www.w3.org/2000/svg" width="24" height="24" viewBox="0 0 24 24"><title>prestigio-smartmate</title><path fill="#58A6FF" fill-rule="nonzero" d="M11.851 0l.286.002c3.452.05 5.809 1.115 7.201 2.953.958 1.264 1.353 2.722 1.387 4.154l.003.205v9.833c0 3.63-3.67 6.765-8.647 6.851l-.212.002-.222-.002c-4.906-.085-8.542-3.132-8.645-6.695L3 17.148V7.314c0-.335.02-.67.06-1.006l.035-.252.02-.13.006-.026A6.789 6.789 0 0 1 4.39 2.956C5.782 1.118 8.139.053 11.59.002L11.851 0zm4.521 21.764l-.109.038c-1.308.446-2.816.696-4.402.696-1.625 0-3.167-.262-4.496-.728 1.168.624 2.601 1.014 4.208 1.056l.285.003.217-.002c1.643-.03 3.109-.425 4.297-1.063zM19.558 9.03c-1.47 1.595-4.287 2.719-7.696 2.719-3.405 0-6.222-1.123-7.692-2.717v8.116l.002.102.003.021c.119 2.195 3.54 4.056 7.686 4.056 4.076 0 7.452-1.8 7.678-3.947l.008-.11a.591.591 0 0 1 .009-.072l.001-.05V9.03zm-1.42-5.692l.007.02c.084.262.129.534.129.816 0 2.325-2.985 3.947-6.41 3.947-3.468 0-6.425-1.65-6.425-3.947 0-.279.043-.548.125-.805a4.898 4.898 0 0 0-.241.294c-.595.786-.931 1.679-1.072 2.59-.232 2.108 2.96 4.325 7.611 4.325 4.743 0 7.968-2.304 7.593-4.45l-.002-.02a5.653 5.653 0 0 0-1.048-2.446 5.224 5.224 0 0 0-.266-.324zm-6.289-1.94c-2.865 0-5.239 1.29-5.239 2.776 0 1.466 2.347 2.777 5.254 2.777 2.865 0 5.24-1.29 5.24-2.777 0-1.468-2.347-2.778-5.255-2.776zM9.526 4.39c.605 0 1.17.283 1.17.878 0 .596-.565.878-1.17.878s-1.171-.282-1.171-.878c0-.595.566-.878 1.17-.878zm4.683 0c.605 0 1.17.283 1.17.878 0 .596-.565.878-1.17.878-.606 0-1.171-.282-1.171-.878 0-.595.565-.878 1.17-.878zM9.526 2.05c.605 0 1.17.283 1.17.878s-.565.878-1.17.878-1.171-.283-1.171-.878.566-.878 1.17-.878zm4.683 0c.605 0 1.17.283 1.17.878s-.565.878-1.17.878c-.606 0-1.171-.283-1.171-.878s.565-.878 1.17-.878z"/></svg>