<svg xmlns="http://www.w3.org/2000/svg" width="24" height="24" viewBox="0 0 24 24"><title>station-lite</title><path fill="#58A6FF" fill-rule="nonzero" d="M12.611 0v.012l.233.01C18.487.308 23 3.445 23 7.47v9.06C22 20.755 17.97 24 12 24S2 20.755 1 16.53V7.47C.997 3.247 5.967 0 12 0h.611zm3.761 21.764l-.109.038c-1.308.446-2.816.696-4.402.696-1.625 0-3.167-.262-4.496-.728 1.168.624 2.601 1.014 4.208 1.056l.285.003.217-.002c1.643-.03 3.109-.425 4.297-1.063zM11.515 8c-.767 0-1.29-1.593-.86-1.9.45-.281 2.845.067 2.845.57 0 .413-1.293 1.33-1.985 1.33zm9.985 2.5C19.716 12.769 16.112 14 12 14s-7.716-1.232-9.5-3.5v4.767C2.5 18.34 6.71 21 12 21s9.5-2.66 9.5-5.734V10.5zm-9.642-9C6.633 1.545 2.498 4.077 2.5 7c0 2.95 4.21 5.5 9.5 5.5 5.205 0 9.364-2.47 9.497-5.357L21.5 7c0-2.906-4.09-5.426-9.27-5.498l-.372-.002z"/></svg>