<svg xmlns="http://www.w3.org/2000/svg" width="24" height="24" viewBox="0 0 24 24"><title>station-midi</title><path fill="#58A6FF" fill-rule="nonzero" d="m10.617 0 .058.001a3.52 3.52 0 0 1 .484.047 4.56 4.56 0 0 1 1.55.576l6.951 3.988c.892.511 1.326.967 1.329 1.78.014.11.014.219.002.328L21 17.334c0 1.582-.403 2.61-1.93 3.476l-4.499 2.567c-1.463.83-2.846.83-4.295 0L4.56 20.098l-.634-.372c-.894-.536-1.443-1.326-1.713-2.29-.174-.622-.212-1.12-.212-1.96V5.463c0-.918.425-1.418 1.35-1.943L8.43.622C9.033.28 9.62.078 10.208.018l.073-.006a2.597 2.597 0 0 1 .233-.011h.104ZM3.5 7.366v8.248l.006.472c.014.423.053.718.144 1.035.155.546.436.945.905 1.222l2.128 1.218 4.526 2.553c.84.475 1.5.512 2.321.11l.388-.212 4.563-2.567c.8-.447.996-.836 1.019-1.708l-.007-9.26-4.926 2.887c-1.46.848-2.841.848-4.287-.001L3.5 7.366ZM5 10.515l5 3.044v2.956L5 13.47v-2.955ZM10.48 1.5l-.066.003a1.98 1.98 0 0 0-.29.04c-.095.02-.192.046-.29.08-.196.07-.399.17-.613.3L3.734 5.234l-.126.08-.108.075.226.15 7.486 4.542c.924.56 1.637.56 2.577-.003l5.475-3.302.128-.08.099-.07v-.012l-.15-.1-7.563-4.593c-.468-.287-.882-.427-1.299-.42Zm.596 3.716c.52 0 .94.28.94.627 0 .346-.42.628-.94.628s-.941-.282-.941-.628c0-.346.421-.627.94-.627Z"/></svg>