<svg xmlns="http://www.w3.org/2000/svg" width="24" height="24" viewBox="0 0 24 24"><title>station-duo-max</title><path fill="#58A6FF" fill-rule="evenodd" d="M5.966.501a1.5 1.5 0 0 1 .257.089l13.98 6.272a1 1 0 0 1 .562 1.147l-.16.664.811.37a1 1 0 0 1 .584.91v10.724a1 1 0 0 1-.52.877l-4.022 2.207a1 1 0 0 1-.891.035l-8.681-3.898A1.5 1.5 0 0 1 7 18.529V16.2l-4.726-2.134a1.4 1.4 0 0 1-.784-1.609L4.152 1.601a1.5 1.5 0 0 1 1.814-1.1Zm14.713 13.06-1.482.958-1.136 4.72a1.5 1.5 0 0 1-2.076 1.016L8.5 16.875v1.316a1 1 0 0 0 .484.857l.117.06 7.383 3.214a1 1 0 0 0 .916-.06l3.037-1.833A.5.5 0 0 0 20.68 20v-6.44ZM6.135 1.95a.75.75 0 0 0-.91.543L2.824 12a1 1 0 0 0 .556 1.156l12.409 5.619a.75.75 0 0 0 1.037-.502L19.27 8.5a.7.7 0 0 0-.39-.808L6.26 1.994a.75.75 0 0 0-.126-.044Z"/></svg>