<svg xmlns="http://www.w3.org/2000/svg" width="24" height="24" viewBox="0 0 24 24"><title>station-mini-2-stereo</title><path fill="#58A6FF" d="M14.426 0C9.295 0 5.074 2.458 5.074 5.669v1.022c.026-.013.052-.027.079-.039a1.531 1.531 0 0 1 .642-.114c.102 0 .203.001.304.004.06.002.118.004.177.009a2.594 2.594 0 0 1-.166-.886c-.002-2.454 3.609-4.593 8.194-4.634h.324c4.51.062 8.11 2.177 8.11 4.635l-.002.119c-.08 1.68-1.85 3.182-4.428 3.951-.01.094-.019.187-.026.28-.014.16-.01.32 0 .48.008.106.026.209.04.313 1.896-.517 3.464-1.403 4.428-2.524v4.262c0 1.705-1.742 3.244-4.345 4.047l-.003.038c-.036.342-.066.687-.098 1.026l-.004.043c3.215-.877 5.462-2.813 5.462-5.172v-6.87c0-3.049-3.832-5.42-8.607-5.627l-.197-.008V.015L14.426 0Zm.082 3.906c-1.25 0-2.334.62-2.334 1.556 0 .935 1.084 1.556 2.334 1.556s2.333-.62 2.333-1.556c0-.94-1.084-1.556-2.333-1.556Zm0 1.039c.753 0 1.295.31 1.295.517 0 .209-.542.517-1.295.517-.754 0-1.296-.31-1.296-.517 0-.21.542-.517 1.296-.517Zm-1.842 9.641-.01.008c-.001.002-.063.08-.018.027.024-.03.005-.01.016-.004.007.003.01-.011.012-.03ZM9.352 5.648C4.22 5.648 0 8.106 0 11.318v6.868c0 3.203 4.22 5.67 9.352 5.67 5.13 0 9.351-2.459 9.351-5.67v-6.869c0-3.05-3.831-5.42-8.606-5.627l-.198-.008v-.01l-.547-.024Zm-.125 1.039h.324c4.51.062 8.11 2.177 8.11 4.635l-.003.119c-.116 2.429-3.749 4.51-8.276 4.51-4.634 0-8.317-2.143-8.317-4.634-.002-2.454 3.608-4.593 8.193-4.635l-.03.005Zm.205 2.867c-1.25 0-2.333.621-2.333 1.556 0 .936 1.084 1.556 2.333 1.556 1.25 0 2.334-.62 2.334-1.556 0-.939-1.084-1.556-2.334-1.556Zm0 1.04c.754 0 1.296.309 1.296.516 0 .209-.542.518-1.296.518-.753 0-1.295-.31-1.295-.518 0-.209.542-.517 1.295-.517Zm8.235 3.334v4.262c0 2.479-3.679 4.635-8.317 4.635-4.635 0-8.318-2.144-8.318-4.635v-4.262c1.556 1.83 4.718 3.042 8.318 3.042 3.591 0 6.744-1.213 8.317-3.042ZM2.357 16.35v2.81c1.58 1.493 4.303 2.213 6.993 2.201v-3.074c-2.504.005-5.049-.596-6.993-1.933v-.004Z"/></svg>