<svg xmlns="http://www.w3.org/2000/svg" width="24" height="24" viewBox="0 0 24 24"><title>station-2</title><path fill="#58A6FF" fill-rule="evenodd" d="m13.258.376.199.105 5.487 3.075c.766.428 1.114.962 1.048 1.488L20 18.783c0 1.238-.318 2.042-1.524 2.72l-3.551 2.01c-1.155.65-2.247.65-3.391 0L7.02 20.946l-.501-.29c-.706-.42-1.14-1.039-1.353-1.793C5.03 18.376 5 17.986 5 17.329V4.275l.003-.11c-.038-.511.315-1.029 1.057-1.446L10.08.48C10.6.19 11.112.03 11.62.004l.05-.002h.2c.46.015.921.14 1.388.374ZM6.499 5.7 6.5 17.329l.005.356c.01.32.04.541.107.78.116.412.327.713.679.922l1.596.919 3.394 1.924c.63.359 1.125.386 1.74.083l.291-.16 3.422-1.935c.6-.337.747-.63.764-1.288l-.005-12.395-3.572 1.988c-1.153.636-2.243.636-3.384 0L6.499 5.7Zm4.324-3.932L6.681 4.113l.123.075 5.484 3.07c.677.379 1.199.379 1.887-.001l4.01-2.232.094-.055.023-.015-.008-.006-5.59-3.18c-.677-.387-1.196-.387-1.88 0Zm1.244 1.442 2.58 1.552c.473.28.47.738-.004 1.023-.473.285-1.245.285-1.714 0l-2.576-1.549c-.474-.284-.469-.742.004-1.026.474-.281 1.242-.281 1.71 0Z"/></svg>