<svg xmlns="http://www.w3.org/2000/svg" width="24" height="24" viewBox="0 0 24 24"><title>station-lite-2</title><path fill="#58A6FF" fill-rule="nonzero" d="M23,6 C23.75,8 23.6496261,17.0511218 23,19 C22,22 17.9691229,24 12.0000033,24 C6.0308838,24 1.96442321,22.8576928 1,19 C0.5,17 0.75,7.75 1.25,6 C1.75,4.25 4.5,0.5 12,0.5 C19.5,0.5 22.25,4 23,6 Z M13.000163,14.7051546 L13.0004851,18.6561141 C9.71522141,18.8439251 6.30296455,18.1891011 3.99907738,16.6502082 L3.99890663,12.8640927 C6.62229765,14.3056773 9.87972553,14.8693575 13.000163,14.7051546 Z M21.75,10 C19,12.25 15,12.5 12,12.5 C9,12.5 4.75,12 2.5,10 C2.33333333,13 2.33333333,15.5 2.5,17.5 C2.75,20.5 6.7108988,22.5 12,22.5 C17.2892595,22.5 21,20 21.5,17.75 C21.8333333,16.25 21.9166667,13.6666667 21.75,10 Z M12.25,2 C7.49288304,2.0407647 2.99988052,4.25 2.99988052,6.44974422 C3.00006386,8.64948845 7.31351739,10.4995818 12.1298863,10.4995818 C16.8683958,10.4995818 21.25,8.75 21.25,6.5 C21.25,4.25 17.007117,1.9592353 12.25,2 Z M12.1515308,5.5 C12.9795307,5.5 13.6515308,5.94799999 13.6515308,6.5 C13.6515308,7.05200001 12.9795307,7.5 12.1515308,7.5 C11.3235308,7.5 10.6515308,7.05200001 10.6515308,6.5 C10.6515308,5.94799999 11.3235308,5.5 12.1515308,5.5 Z"/></svg>