<svg xmlns="http://www.w3.org/2000/svg" width="24" height="24" viewBox="0 0 24 24"><title>station-max</title><path fill="#58A6FF" fill-rule="nonzero" d="M6.271 11.243l3.786 2.305v2.238L6.27 13.48v-2.238zM11.877 0l.21.007c.42.026.836.13 1.237.307l.199.095 5.31 2.802h.01l.138.08.01.005c.101.056.194.123.278.2l.01.01a1.491 1.491 0 0 1 .46 1.24l-.21 14.49c0 .577-.29 1.11-.75 1.405l-.11.064-4.948 2.835a3.965 3.965 0 0 1-3.55.08l-.178-.09-5.014-2.872a1.667 1.667 0 0 1-.774-1.282l-.005-.132-.192-14.496a1.476 1.476 0 0 1 .665-1.401l.11-.065L10.207.418l.017-.01.177-.083c.185-.083.373-.15.562-.202l.052-.014a3.263 3.263 0 0 1 .45-.084c.137-.017.274-.025.411-.025zm-6.64 6.141l.174 13.095c0 .151.068.288.187.377l.064.04 4.915 2.817c.755.4 1.65.425 2.41.083l.149-.074 4.95-2.835a.45.45 0 0 0 .227-.34l.006-.076.188-13.085-5.417 2.86h-.012a2.871 2.871 0 0 1-1.206.269 2.91 2.91 0 0 1-1.189-.262l-.157-.078-5.288-2.79zm10.876-2.317c0 1.593-1.942 2.726-4.24 2.726-2.297 0-4.239-1.133-4.239-2.726 0-.268.055-.522.157-.76L5.362 4.345a.693.693 0 0 0-.026.016l-.012.007-.01.007.012-.007-.01.007-.01.007-.014.011-.001.002-.017.018a.232.232 0 0 0-.045.117l-.006.058-.003.074a.26.26 0 0 0 .083.138l.045.03 5.745 3.032c.242.129.512.197.783.199.219 0 .437-.046.657-.142l.133-.063L18.4 4.83a.255.255 0 0 0 .128-.169.514.514 0 0 0-.034-.217l-.02-.03-.032-.031-.041-.029-2.444-1.29c.102.238.156.492.156.76zm-4.24-1.514c-1.716 0-3.028.765-3.028 1.514 0 .75 1.312 1.514 3.029 1.514 1.717 0 3.028-.765 3.028-1.514 0-.75-1.312-1.514-3.028-1.514z"/></svg>