<svg xmlns="http://www.w3.org/2000/svg" width="32" height="33" viewBox="0 0 32 33"><title>dexp-smartbox</title><path fill="#000" fill-rule="nonzero" d="M2.874 14.628l.001 5.092c0 .168.1.365.258.5l.083.063 10.294 7.245c1.573.967 3.508 1.01 5.005.124l.202-.126 10.054-7.171a.921.921 0 0 0 .317-.42l.022-.085.008-.273-.007-4.901-9.498 6.55c-2.093 1.465-4.628 1.516-6.782.159l-.23-.151-9.727-6.606zm11.245-9.303l-.229.116-9.859 6.26c-.119.08-.218.16-.299.236a.856.856 0 0 1-.176.212c-.187.287-.114.546.136.76l.075.058 9.891 6.718c1.499 1.028 3.206 1.07 4.693.13l.193-.128 9.652-6.657c.286-.191.395-.477.197-.816l-.06-.093-.034-.027a.931.931 0 0 1-.145-.173 2.765 2.765 0 0 0-.432-.338l-.147-.092-9.144-5.987c-1.404-.79-2.928-.84-4.312-.18zm-.797 8.843a.938.938 0 0 1-.202 1.23l-.09.064-1.424.901a.937.937 0 0 1-1.092-1.52l.09-.064 1.424-.902a.937.937 0 0 1 1.294.291zm6.626-.343l.096.053 1.424.9a.937.937 0 0 1-.906 1.638l-.096-.053-1.424-.9a.937.937 0 0 1 .906-1.638zm-3.936-2.49c.754 0 1.367.447 1.367.998 0 .55-.613.996-1.367.996-.755 0-1.367-.446-1.367-.996 0-.551.612-.998 1.367-.998zm5.747-2.52a.938.938 0 0 1-.202 1.23l-.089.064-1.424.9a.937.937 0 0 1-1.091-1.52l.089-.064 1.424-.901a.937.937 0 0 1 1.293.291zm-10.118-.347l.096.054 1.425.901a.937.937 0 0 1-.907 1.638l-.095-.053-1.425-.902a.937.937 0 0 1 .906-1.638zm17.85 2.183c.79.574 1.272 1.263 1.414 2.005.034.08.059.164.07.253l.009.125.015 4.809-.005 1.502-.02.693a2.77 2.77 0 0 1-.978 1.74l-.144.108-10.071 7.183c-2.092 1.394-4.802 1.443-7.061.166l-.24-.142L2.171 21.84a2.586 2.586 0 0 1-1.165-1.937L1 19.72v-6.723c0-.058.005-.116.016-.171.062-.761.49-1.47 1.24-2.044.196-.224.435-.436.72-.63l.195-.126 9.77-6.2c1.981-1.074 4.18-1.107 6.21-.06l.253.136 9.164 6c.41.244.748.521 1.014.816l-.09-.067z"/></svg>