<svg xmlns="http://www.w3.org/2000/svg" width="32" height="33" viewBox="0 0 32 33"><title>elari-smartbeat</title><path fill="#000" fill-rule="nonzero" d="M16.1 1c5.845 0 9.147 4.652 9.147 9.755v15.352c0 3.458-3.966 6.893-9.148 6.893l-.26-.003C10.844 32.892 7 29.757 7 26.107V10.755c0-2.346.392-4.223 1.592-5.876C10.26 2.615 13.168 1 16.1 1zm7.49 12.46c-3.596 2.943-11.422 2.891-14.932.152v12.495c0 2.705 3.163 5.234 7.441 5.234l.248-.003c4.095-.1 7.105-2.676 7.237-5.068l.004-.163.002-12.647zm-2.111-8.54c.328 1.975-.677 4.253-2.716 5.984-2.647 2.234-6.494 2.886-9.002 1.507 3.291 2.484 12.237 2.147 13.808-1.541l.02-.051v-.064c0-2.23-.733-4.331-2.11-5.834zm-2.54-1.305c-1.605-1.423-5.2-1.018-7.545 1.005-2.368 2.024-2.915 4.56-1.459 5.886l.079.072.135.11c.455.351 1.023.582 1.655.697l-.119-.115c-1.519-1.533-.97-3.984 1.043-5.679 1.965-1.677 5.005-1.98 6.607-.55.209.185.386.384.534.595a2.689 2.689 0 0 0-.93-2.02zM13.8 6.857c-1.334 1.123-1.654 2.46-.964 3.215l.091.091.114.096c1.036.804 3.087.573 4.472-.59 1.358-1.136 1.626-2.585.719-3.389-.919-.82-3.043-.609-4.432.577z"/></svg>