<svg xmlns="http://www.w3.org/2000/svg" width="32" height="33" viewBox="0 0 32 33"><title>irbis-a</title><path fill="#000" fill-rule="nonzero" d="M16.443 2c5.224 0 9.748 1.842 11.516 4.572l-.03-.027c1.152 1.055 1.705 2.343 1.765 3.866a.785.785 0 0 1 .04.163l.009.105.14 8.274v.002C29.882 26.994 23.862 32 16.44 32 8.97 32 3 27.038 3 18.955l.003-.052L3 18.706l.14-8.028.006-.097.005-.175c.06-1.417.58-2.654 1.613-3.68l.169-.163C6.704 3.838 11.223 2 16.443 2zM6.349 25.191C8.385 28.47 12.1 30.32 16.441 30.32c4.263 0 7.955-1.83 10.016-5.045-2.452 1.766-6.017 2.732-10.016 2.732-4.106 0-7.669-.996-10.092-2.816zm-1.545-13.68l-.124 7.21c0 4.656 4.898 7.606 11.761 7.606 6.563 0 11.588-2.787 11.757-7.134l.004-.226-.125-7.449c-1.676 2.835-6.289 4.763-11.634 4.763-5.35 0-9.966-1.931-11.639-4.77zm11.639-7.83c-5.932 0-10.627 2.58-10.627 5.46s4.695 5.46 10.627 5.46c5.93 0 10.627-2.58 10.627-5.46s-4.697-5.46-10.627-5.46zm.004 7.274c.872 0 1.578.395 1.578.882 0 .488-.707.882-1.578.882-.872 0-1.578-.394-1.578-.882 0-.487.707-.882 1.578-.882zm5.398-2.696c.872 0 1.578.394 1.578.882 0 .487-.706.882-1.578.882-.872 0-1.577-.395-1.577-.882 0-.488.706-.882 1.577-.882zm-10.812 0c.872 0 1.577.394 1.577.882 0 .487-.706.882-1.577.882-.872 0-1.578-.395-1.578-.882 0-.488.706-.882 1.578-.882zm5.412-2.695c.87 0 1.575.395 1.575.882 0 .456-.62.832-1.414.877l-.161.005c-.87 0-1.576-.394-1.576-.881 0-.488.705-.883 1.576-.883z"/></svg>