<svg xmlns="http://www.w3.org/2000/svg" width="32" height="33" viewBox="0 0 32 33"><title>jbl-link-music</title><path fill="#000" fill-rule="nonzero" d="M15.986.2c2.21 0 4.409.668 6.606 1.93 4.295 2.496 5.132 4.786 5.203 12.617l.005 1.239c0 4.845-.155 6.697-.61 8.324l-.082.277C25.69 29.072 20.433 31.8 15.986 31.8c-2.195 0-4.381-.646-6.582-1.933-4.215-2.484-5.125-4.892-5.198-12.085l-.005-.804v-1.571c.008-1.857.061-3.757.144-5.098.314-3.93 2.262-6.694 5.318-8.392C11.746.761 14.231.2 15.986.2zM24.7 5.976l-.002.01c-.239 1.125-1.29 2.234-3.137 3.236-3.797 2.087-7.584 2.017-11.307-.094C8.671 8.21 7.63 7.205 7.314 6.154c-.766 1.176-1.239 2.59-1.373 4.268-.086 1.402-.141 3.48-.141 5.447v1.107c.015 7.05.625 9.156 4.024 11.275l.39.236c1.963 1.148 3.875 1.713 5.772 1.713 3.822 0 8.425-2.388 9.594-6.087.41-1.347.582-2.797.614-6.626l.006-1.501c0-5.46-.241-8.163-1.5-10.01zM15.986 1.8c-.805 0-1.817.144-2.865.435-1.501.501-3.01 1.363-3.789 2.144C8.22 5.5 8.76 6.53 11.001 7.826c3.27 1.855 6.503 1.914 9.842.08 3.136-1.703 3.203-3.004.219-4.7-.538-.31-1.08-.572-1.623-.784-1.16-.412-2.31-.622-3.453-.622zm-.445 2.007c.513-.134 1.034-.029 1.531.273.846.54.94 1.434.056 2.038-.697.45-1.459.473-2.198.042-.576-.363-.856-.922-.577-1.507.183-.383.55-.63 1.028-.797l.16-.05z"/></svg>