<svg xmlns="http://www.w3.org/2000/svg" width="32" height="33" viewBox="0 0 32 33"><title>jbl-link-portable</title><path fill="#000" fill-rule="nonzero" d="M12.113 2.527c2.769-1.673 5.51-1.756 8.246-.296.22.118.428.237.624.359l.009-.013c1.966 1.213 2.98 2.661 3.436 4.788.126.585.189 1.09.22 1.707l.043.948c.158 3.942.147 12.276-.05 15.08-.108 1.66-.506 3.062-1.293 4.194-.564.828-1.377 1.536-2.402 2.175-1.618.992-3.333 1.451-5.085 1.304-1.464-.122-2.928-.688-4.193-1.572-2.009-1.343-2.996-3.037-3.273-5.73l-.032-.38c-.224-3.137-.214-13.61.008-16.384.105-1.377.43-2.607 1.02-3.631.438-.76 1.024-1.358 1.867-1.972.257-.196.543-.388.855-.577zm10.6 4.584l-.05.07c-.392.521-.985 1.031-1.787 1.517-2.82 1.704-5.681 1.756-8.472.154l-.211-.118c-.836-.48-1.508-1.008-1.935-1.604a8.587 8.587 0 0 0-.292 1.702l-.028.413c-.196 3.357-.186 13.725.049 16.064.229 2.225.965 3.488 2.584 4.57 1.056.74 2.254 1.202 3.424 1.3 1.395.117 2.775-.252 4.11-1.07.846-.529 1.5-1.098 1.925-1.722.556-.8.873-1.825.989-3.078l.025-.317c.188-2.663.203-10.547.061-14.565l-.04-.968c-.025-.693-.077-1.178-.201-1.758a7.735 7.735 0 0 0-.15-.59zm-3.107-3.468c-2.237-1.194-4.377-1.13-6.666.254l.015-.01c-.22.14-.421.273-.606.404-.627.463-.991.913-1.007 1.284-.02.543.694 1.251 1.844 1.882l.246.136c2.211 1.177 4.374 1.091 6.616-.264 2.249-1.362 2.11-2.328-.442-3.686zm-3.565.664c.513-.134 1.034-.029 1.531.273.846.54.94 1.434.056 2.038-.697.45-1.459.473-2.198.042-.576-.363-.856-.922-.577-1.507.183-.383.55-.63 1.028-.797l.16-.05z"/></svg>