<svg xmlns="http://www.w3.org/2000/svg" width="32" height="33" viewBox="0 0 32 33"><title>prestigio-smartmate</title><path fill="#000" fill-rule="nonzero" d="M15.802 1l.381.003c4.602.067 7.745 1.487 9.601 3.937 1.277 1.685 1.805 3.63 1.85 5.539l.003.272v13.112c0 4.839-4.893 9.02-11.53 9.135l-.281.002-.296-.002C8.988 32.884 4.14 28.82 4.003 24.07L4 23.864V10.75c0-.445.026-.893.08-1.34l.047-.336c.008-.057.017-.115.028-.173l.007-.035c.243-1.37.773-2.714 1.691-3.926 1.857-2.45 4.999-3.87 9.6-3.938L15.803 1zm6.028 29.02l-.146.05c-1.743.594-3.755.927-5.87.927-2.165 0-4.222-.349-5.994-.97 1.557.831 3.469 1.352 5.61 1.407l.381.005.29-.003c2.19-.04 4.144-.567 5.729-1.417zm4.247-16.98c-1.959 2.127-5.716 3.625-10.26 3.625-4.541 0-8.297-1.497-10.257-3.622l.001 10.82c0 .046 0 .092.002.137l.003.028c.159 2.927 4.72 5.408 10.248 5.408 5.436 0 9.937-2.4 10.238-5.262l.011-.146a.788.788 0 0 1 .012-.098l.001-.067V13.039zM24.185 5.45l.008.027c.113.348.172.711.172 1.088 0 3.1-3.979 5.262-8.546 5.262-4.624 0-8.567-2.201-8.567-5.262 0-.373.058-.731.167-1.075-.113.127-.22.258-.322.393-.793 1.048-1.241 2.239-1.43 3.452-.308 2.811 3.949 5.768 10.15 5.768 6.324 0 10.623-3.072 10.123-5.933l-.003-.027c-.204-1.148-.645-2.269-1.397-3.261a6.965 6.965 0 0 0-.355-.432zm-8.386-2.587c-3.82 0-6.986 1.72-6.986 3.702 0 1.954 3.13 3.702 7.006 3.702 3.82 0 6.985-1.721 6.985-3.702 0-1.958-3.128-3.705-7.005-3.702zM12.7 6.854c.807 0 1.56.377 1.56 1.17 0 .794-.753 1.171-1.56 1.171s-1.561-.377-1.561-1.17c0-.794.754-1.171 1.56-1.171zm6.244 0c.807 0 1.56.377 1.56 1.17 0 .794-.753 1.171-1.56 1.171s-1.561-.377-1.561-1.17c0-.794.754-1.171 1.56-1.171zM12.7 3.732c.807 0 1.56.377 1.56 1.17 0 .794-.753 1.171-1.56 1.171s-1.561-.377-1.561-1.17c0-.794.754-1.171 1.56-1.171zm6.244 0c.807 0 1.56.377 1.56 1.17 0 .794-.753 1.171-1.56 1.171s-1.561-.377-1.561-1.17c0-.794.754-1.171 1.56-1.171z"/></svg>