<svg xmlns="http://www.w3.org/2000/svg" width="32" height="32" viewBox="0 0 32 32"><title>station</title><path fill="#000" fill-rule="nonzero" d="M16.405.149l.278.008a4.748 4.748 0 0 1 1.633.407l.263.125 7.014 3.702h.012l.183.104.013.008c.134.073.257.162.367.263l.014.013a1.97 1.97 0 0 1 .608 1.637l-.277 19.142c0 .76-.384 1.467-.992 1.855l-.144.084-6.537 3.745a5.237 5.237 0 0 1-4.69.105l-.235-.118-6.622-3.794a2.202 2.202 0 0 1-1.022-1.693l-.007-.174L6.01 6.42a1.95 1.95 0 0 1 .879-1.851l.144-.085L14.2.7l.023-.012.233-.111c.244-.11.493-.199.743-.267l.068-.018a4.31 4.31 0 0 1 .594-.111 4.52 4.52 0 0 1 .544-.033zM7.635 8.26l.229 17.297c0 .199.09.38.247.498l.084.053 6.493 3.72c.997.528 2.18.561 3.181.109l.198-.097 6.538-3.745a.595.595 0 0 0 .3-.448l.008-.102.249-17.283-7.156 3.778h-.015a3.792 3.792 0 0 1-1.594.355 3.844 3.844 0 0 1-1.57-.346l-.208-.102L7.635 8.26zM22 5.2c0 2.104-2.565 3.6-5.6 3.6-3.035 0-5.6-1.496-5.6-3.6 0-.354.072-.69.207-1.005L7.8 5.888a.915.915 0 0 0-.034.021l-.016.01-.013.009.015-.01-.014.01-.012.009-.018.015-.002.002-.022.024a.306.306 0 0 0-.06.155l-.008.076-.004.098a.344.344 0 0 0 .11.182l.059.04 7.588 4.005c.32.17.677.26 1.034.262.29 0 .578-.06.87-.187l.175-.083 7.573-3.998a.337.337 0 0 0 .17-.222c-.003-.143-.015-.227-.045-.287l-.027-.04-.042-.041-.054-.038-3.23-1.705c.136.315.208.651.208 1.005zm-5.6-2c-2.267 0-4 1.01-4 2s1.732 2 4 2 4-1.01 4-2-1.732-2-4-2z"/></svg>