<svg xmlns="http://www.w3.org/2000/svg" width="32" height="33" viewBox="0 0 32 33"><title>station-mini</title><path fill="#000" fill-rule="nonzero" d="M16.824 2.565v.014l.313.013c7.605.344 13.687 4.117 13.687 8.959v10.898c0 5.082-6.697 8.986-14.824 8.986-8.126 0-14.824-3.904-14.824-8.985V11.551C1.172 6.47 7.87 2.565 16 2.565h.824zM29.176 22.45l.002-6.74c-2.474 2.904-7.474 4.827-13.178 4.827-5.704 0-10.703-1.922-13.177-4.825v6.74c0 3.933 5.84 7.337 13.177 7.337s13.176-3.404 13.176-7.339l.002-6.74-.002 6.74zM15.802 4.213c-7.247.06-12.982 3.439-12.978 7.338 0 3.935 5.839 7.338 13.176 7.338 7.219 0 12.988-3.294 13.172-7.148l.004-.19c0-3.877-5.671-7.24-12.858-7.336l-.516-.002zm.326 4.552c1.987 0 3.706.982 3.706 2.47 0 1.489-1.719 2.47-3.706 2.47-1.986 0-3.705-.981-3.705-2.47 0-1.488 1.719-2.47 3.705-2.47zm0 1.647c-1.197 0-2.058.492-2.058.823 0 .332.86.824 2.058.824s2.06-.492 2.06-.824c0-.331-.862-.823-2.06-.823z"/></svg>